#!OML:ASF I:\Random Stuff\random\construction\7_22_03\Session 2\subj1.ASF
:FULLY-SPECIFIED
:DEGREES
3476
root 11.9242 17.6096 -5.24433 -187.078 -259.11 501.964
lowerback 32.1087 0.823733 0.107693
upperback 7.83216 1.6298 -0.504905
thorax -8.63229 0.99798 -1.29152
lowerneck -29.0751 4.06638 3.82998
upperneck 27.8165 5.28037 -3.07254
head 14.6619 2.21859 -0.803205
rclavicle 2.38542e-015 -5.96354e-015
rhumerus 17.9945 -29.3954 -82.8729
rradius 40.6337
rwrist -47.7425
rhand -19.3053 0.34028
rfingers 7.12502
rthumb 7.01048 -29.5236
lclavicle 2.38542e-015 -5.96354e-015
lhumerus 19.8342 -9.73774 77.2543
lradius 32.8759
lwrist 47.455
lhand -10.6939 67.1832
lfingers 7.12502
lthumb 15.3153 1343.4
rfemur -44.6613 -7.55914 23.9711
rtibia 29.389
rfoot -6.3855 -8.04787
rtoes -30.1658
lfemur -53.2424 11.0599 -23.5252
ltibia 38.4124
lfoot -13.0096 9.87005
ltoes -20.3073
3477
root 11.9231 17.6094 -5.23684 -187.879 -259.085 501.399
lowerback 32.0571 0.955406 0.252435
upperback 7.87703 1.83575 -0.573874
thorax -8.54594 1.09384 -1.52909
lowerneck -29.351 3.79214 3.1852
upperneck 27.7859 5.02958 -2.66279
head 14.6581 2.10087 -0.576922
rclavicle 2.3059e-014 6.55989e-014
rhumerus 17.7138 -28.2679 -81.1325
rradius 40.9256
rwrist -45.2078
rhand -19.447 0.746771
rfingers 7.12502
rthumb 6.87369 -29.1216
lclavicle 2.3059e-014 6.55989e-014
lhumerus 20.4495 -10.6367 77.4974
lradius 32.0378
lwrist 45.2594
lhand -11.9482 67.8699
lfingers 7.12502
lthumb 14.1069 1342.63
rfemur -44.7274 -8.05955 24.3384
rtibia 29.8918
rfoot -6.33869 -7.48174
rtoes -30.1224
lfemur -52.9687 11.1017 -23.3326
ltibia 38.4279
lfoot -13.0515 9.91252
ltoes -20.5592
3478
root 11.9187 17.6123 -5.22856 -189.119 -259.107 500.414
lowerback 32.0697 0.934516 0.125825
upperback 7.91208 1.76987 -0.626454
thorax -8.51459 1.06752 -1.49014
lowerneck -29.3677 3.88697 3.08735
upperneck 27.5977 5.14002 -2.49838
head 14.5726 2.16129 -0.470507
rclavicle -2.3059e-014 -2.5842e-014
rhumerus 17.9025 -27.0093 -80.3527
rradius 41.0384
rwrist -41.8947
rhand -19.2251 1.41662
rfingers 7.12502
rthumb 7.08789 -28.4447
lclavicle -2.3059e-014 -2.5842e-014
lhumerus 20.7877 -10.9527 77.4485
lradius 31.2477
lwrist 42.0068
lhand -12.988 68.0731
lfingers 7.12502
lthumb 13.1047 1342.36
rfemur -44.7543 -8.54124 24.728
rtibia 30.3864
rfoot -6.3088 -6.94944
rtoes -29.7761
lfemur -52.6545 10.9872 -22.986
ltibia 38.4337
lfoot -13.1054 10.0496
ltoes -20.3116
3479
root 11.9118 17.6152 -5.2213 -190.329 -259.184 499.468
lowerback 32.1358 0.89777 -0.0265871
upperback 7.95651 1.68045 -0.658171
thorax -8.49907 1.03124 -1.40512
lowerneck -29.4257 4.06574 3.19595
upperneck 27.4838 5.3841 -2.63967
head 14.5517 2.25322 -0.495041
rclavicle 5.88403e-014 2.82274e-014
rhumerus 18.2547 -25.75 -79.812
rradius 41.1762
rwrist -38.88
rhand -19.1264 2.27771
rfingers 7.12502
rthumb 7.18314 -27.5804
lclavicle 5.88403e-014 2.82274e-014
lhumerus 21.0872 -11.4694 77.3257
lradius 30.5165
lwrist 38.4737
lhand -14.7509 68.4639
lfingers 7.12502
lthumb 11.405 1341.87
rfemur -44.7572 -9.07441 25.08
rtibia 30.8393
rfoot -6.2492 -6.40679
rtoes -29.7929
lfemur -52.3416 10.7894 -22.662
ltibia 38.4471
lfoot -13.1433 10.2466
ltoes -20.5739
3480
root 11.9025 17.6166 -5.21506 -191.868 -259.264 498.173
lowerback 32.1869 0.870182 -0.0517446
upperback 8.05304 1.64898 -0.668696
thorax -8.41278 1.02244 -1.39014
lowerneck -29.5783 4.2116 3.31575
upperneck 27.4052 5.57982 -2.80003
head 14.5655 2.32148 -0.537697
rclavicle -2.22639e-014 -1.27222e-014
rhumerus 18.5991 -24.1447 -79.063
rradius 41.4883
rwrist -36.8859
rhand -19.2982 3.11656
rfingers 7.12502
rthumb 7.01728 -26.7471
lclavicle -2.22639e-014 -1.27222e-014
lhumerus 21.4928 -12.4782 76.9956
lradius 29.8652
lwrist 35.209
lhand -16.5495 68.9781
lfingers 7.12502
lthumb 9.66998 1341.26
rfemur -44.753 -9.62029 25.4885
rtibia 31.2595
rfoot -6.13147 -5.87974
rtoes -29.8796
lfemur -52.0634 10.5291 -22.2675
ltibia 38.4567
lfoot -13.1173 10.5391
ltoes -21.3064
3481
root 11.8896 17.616 -5.20765 -194.102 -259.342 496.18
lowerback 32.2738 0.821538 0.0123269
upperback 8.17164 1.6275 -0.626767
thorax -8.31716 1.01824 -1.37182
lowerneck -29.587 4.41473 3.53816
upperneck 27.2057 5.83328 -3.03711
head 14.5072 2.41644 -0.618747
rclavicle -1.59028e-014 6.75868e-015
rhumerus 18.7788 -22.1059 -78.1957
rradius 42.1537
rwrist -35.5139
rhand -19.9481 3.9699
rfingers 7.12502
rthumb 6.38996 -25.9137
lclavicle -1.59028e-014 6.75868e-015
lhumerus 21.8968 -13.3481 76.7241
lradius 29.2025
lwrist 31.9897
lhand -17.8241 69.4745
lfingers 7.12502
lthumb 8.44006 1340.71
rfemur -44.7207 -10.0699 25.951
rtibia 31.6646
rfoot -6.02608 -5.48626
rtoes -29.4157
lfemur -51.8061 10.3095 -21.7857
ltibia 38.4469
lfoot -13.0301 10.781
ltoes -22.0175
3482
root 11.8757 17.6124 -5.19968 -196.184 -259.506 494.327
lowerback 32.3899 0.745487 -0.0367993
upperback 8.28973 1.54121 -0.554129
thorax -8.24027 0.985508 -1.22945
lowerneck -29.4768 4.65697 3.80754
upperneck 26.967 6.14868 -3.34773
head 14.4173 2.53394 -0.725972
rclavicle 3.33958e-014 1.78906e-014
rhumerus 18.89 -19.7741 -77.3938
rradius 43.0341
rwrist -33.8951
rhand -21.0194 4.81786
rfingers 7.12502
rthumb 5.35565 -25.0945
lclavicle 3.33958e-014 1.78906e-014
lhumerus 22.2589 -13.7789 76.6289
lradius 28.5668
lwrist 29.0636
lhand -18.7665 69.907
lfingers 7.12502
lthumb 7.53049 1340.25
rfemur -44.7214 -10.6314 26.3488
rtibia 32.0494
rfoot -5.94657 -5.05593
rtoes -29.0166
lfemur -51.568 10.152 -21.4771
ltibia 38.401
lfoot -13.0134 10.8554
ltoes -22.6353
3483
root 11.8647 17.6111 -5.1867 -197.716 -259.747 492.981
lowerback 32.485 0.720445 -0.243648
upperback 8.40012 1.47093 -0.461231
thorax -8.16545 0.961353 -0.978279
lowerneck -29.441 4.77353 3.76367
upperneck 26.807 6.32966 -3.36021
head 14.347 2.60498 -0.686984
rclavicle 1.35174e-014 9.54166e-015
rhumerus 19.3187 -17.3532 -76.5346
rradius 43.52
rwrist -31.5044
rhand -22.2107 5.55065
rfingers 7.12502
rthumb 4.20533 -24.3876
lclavicle 1.35174e-014 9.54166e-015
lhumerus 22.6614 -14.2225 76.5151
lradius 28.0951
lwrist 26.9869
lhand -18.3479 69.7038
lfingers 7.12502
lthumb 7.93454 1340.47
rfemur -44.772 -11.2718 26.6348
rtibia 32.4141
rfoot -5.85589 -4.55206
rtoes -29.1353
lfemur -51.3544 10.0134 -21.3412
ltibia 38.311
lfoot -13.037 10.7751
ltoes -22.916
3484
root 11.8544 17.6153 -5.16882 -199.402 -260.001 491.44
lowerback 32.8809 0.746519 -0.416443
upperback 8.0538 1.47036 -0.379001
thorax -7.98324 0.973118 -0.738757
lowerneck -29.2885 4.77797 3.56064
upperneck 26.5635 6.36324 -3.19709
head 14.1968 2.62692 -0.584023
rclavicle -7.15625e-015 1.55052e-014
rhumerus 20.0312 -15.0472 -75.634
rradius 43.5309
rwrist -28.7155
rhand -23.3663 6.55332
rfingers 7.12502
rthumb 3.08938 -23.404
lclavicle -7.15625e-015 1.55052e-014
lhumerus 23.1047 -14.7857 76.4288
lradius 27.6969
lwrist 25.7828
lhand -18.9962 70.794
lfingers 7.12502
lthumb 7.30878 1339.35
rfemur -44.7816 -11.5996 26.7724
rtibia 32.771
rfoot -5.81734 -4.363
rtoes -28.914
lfemur -51.1974 9.99569 -21.2635
ltibia 38.1936
lfoot -13.0011 10.5351
ltoes -23.2763
3485
root 11.8396 17.6205 -5.15416 -201.289 -260.272 489.648
lowerback 32.9471 0.740034 -0.462088
upperback 8.14121 1.46921 -0.301056
thorax -7.91564 0.977522 -0.632205
lowerneck -29.0269 4.79314 3.62715
upperneck 26.2915 6.37501 -3.28201
head 14.0349 2.63337 -0.632076
rclavicle -9.54166e-015 6.36111e-015
rhumerus 20.9058 -13.0234 -74.9964
rradius 43.426
rwrist -26.3491
rhand -24.1257 7.65292
rfingers 7.12502
rthumb 2.35599 -22.3138
lclavicle -9.54166e-015 6.36111e-015
lhumerus 23.5518 -15.292 76.4225
lradius 27.3643
lwrist 25.165
lhand -19.5596 71.4256
lfingers 7.12502
lthumb 6.76494 1338.7
rfemur -44.7961 -11.7084 26.8124
rtibia 33.1073
rfoot -5.7899 -4.45674
rtoes -28.9537
lfemur -51.1573 10.0534 -21.2606
ltibia 38.0864
lfoot -12.9208 10.2752
ltoes -23.9364
3486
root 11.8237 17.6205 -5.14088 -202.913 -260.521 488.072
lowerback 32.9923 0.740142 -0.473838
upperback 8.22944 1.48097 -0.278754
thorax -7.83711 0.988054 -0.606374
lowerneck -28.8977 4.77564 3.81487
upperneck 26.1794 6.29476 -3.37842
head 13.9697 2.60782 -0.720374
rclavicle -1.51076e-014 8.74653e-015
rhumerus 21.8627 -11.2594 -74.6439
rradius 43.3823
rwrist -24.5825
rhand -24.4919 8.84233
rfingers 7.12502
rthumb 2.00225 -21.128
lclavicle -1.51076e-014 8.74653e-015
lhumerus 23.9719 -15.1808 76.68
lradius 27.4769
lwrist 25.8991
lhand -19.6513 71.22
lfingers 7.12502
lthumb 6.67648 1338.91
rfemur -44.9243 -12.0896 27.0033
rtibia 33.414
rfoot -5.75587 -4.29301
rtoes -29.6159
lfemur -51.1984 10.0848 -21.2776
ltibia 38.0134
lfoot -12.8311 10.0465
ltoes -24.1043
3487
root 11.8103 17.6164 -5.12688 -204.456 -260.735 486.53
lowerback 33.027 0.774622 -0.4218
upperback 8.29124 1.54989 -0.287088
thorax -7.78139 1.02402 -0.667185
lowerneck -28.8895 4.65121 3.73798
upperneck 26.2572 6.04962 -3.05182
head 13.9736 2.54412 -0.626657
rclavicle -1.82882e-014 5.1684e-015
rhumerus 22.7275 -9.69925 -74.4146
rradius 43.3639
rwrist -22.3129
rhand -25.0626 10.4007
rfingers 7.12502
rthumb 1.45113 -19.5741
lclavicle -1.82882e-014 5.1684e-015
lhumerus 24.2811 -16.3803 76.3003
lradius 27.5512
lwrist 25.9259
lhand -21.2023 71.6675
lfingers 7.12502
lthumb 5.17904 1338.42
rfemur -45.1223 -12.617 27.2997
rtibia 33.6779
rfoot -5.80643 -3.97466
rtoes -29.5961
lfemur -51.271 10.0648 -21.2546
ltibia 37.9455
lfoot -12.741 9.79744
ltoes -24.1853
3488
root 11.7979 17.6128 -5.11189 -205.952 -260.953 485.001
lowerback 33.0516 0.826327 -0.403034
upperback 8.31538 1.62589 -0.29377
thorax -7.76343 1.06195 -0.711443
lowerneck -28.8833 4.49478 3.54141
upperneck 26.4158 5.78219 -2.61452
head 14.0042 2.47493 -0.472693
rclavicle 1.27222e-014 -2.18663e-014
rhumerus 23.5153 -8.30261 -74.3824
rradius 43.147
rwrist -18.6612
rhand -26.0623 12.4408
rfingers 7.12502
rthumb 0.485548 -17.5384
lclavicle 1.27222e-014 -2.18663e-014
lhumerus 24.5971 -16.0279 76.6642
lradius 28.0573
lwrist 26.5741
lhand -20.9543 72.5159
lfingers 7.12502
lthumb 5.4185 1337.57
rfemur -45.2847 -12.7975 27.3901
rtibia 33.9269
rfoot -5.93315 -4.00578
rtoes -28.668
lfemur -51.3888 10.0188 -21.2518
ltibia 37.917
lfoot -12.6622 9.54618
ltoes -24.4681
3489
root 11.7876 17.6146 -5.09754 -207.408 -261.214 483.481
lowerback 33.0265 0.856881 -0.407433
upperback 8.32119 1.66563 -0.303128
thorax -7.74702 1.08227 -0.732599
lowerneck -28.8383 4.27078 3.3258
upperneck 26.4443 5.46242 -2.30563
head 13.9766 2.36405 -0.378823
rclavicle -2.62396e-014 -5.1684e-015
rhumerus 24.4036 -7.15891 -74.6173
rradius 42.4969
rwrist -14.2166
rhand -27.1969 15.3432
rfingers 7.12502
rthumb -0.610241 -14.6357
lclavicle -2.62396e-014 -5.1684e-015
lhumerus 24.8021 -16.349 76.6431
lradius 28.4693
lwrist 25.9027
lhand -21.4718 73.0975
lfingers 7.12502
lthumb 4.91884 1336.98
rfemur -45.7716 -14.5856 28.3151
rtibia 34.1228
rfoot -6.15529 -2.32382
rtoes -28.029
lfemur -51.5382 9.87812 -21.2831
ltibia 37.9078
lfoot -12.6114 9.34909
ltoes -24.0958
3490
root 11.7749 17.6065 -5.08194 -209.387 -261.506 481.564
lowerback 33.2416 0.876412 -0.330045
upperback 8.30843 1.72234 -0.298446
thorax -7.84117 1.11091 -0.794178
lowerneck -28.8322 4.01 3.06564
upperneck 26.5675 5.09367 -1.93314
head 13.9942 2.2364 -0.260383
rclavicle -1.03368e-014 3.57812e-015
rhumerus 25.283 -6.03296 -74.8945
rradius 42.3823
rwrist -10.3618
rhand -28.7932 15.3935
rfingers 7.12502
rthumb -2.15198 -14.5754
lclavicle -1.03368e-014 3.57812e-015
lhumerus 24.9547 -17.7241 76.1177
lradius 28.7498
lwrist 24.5634
lhand -22.5907 73.3457
lfingers 7.12502
lthumb 3.83838 1336.71
rfemur -45.6364 -14.2043 28.014
rtibia 34.2821
rfoot -6.16149 -3.13983
rtoes -28.4438
lfemur -51.6156 9.85286 -21.3572
ltibia 37.9439
lfoot -12.5635 8.95719
ltoes -23.7961
